<svg xmlns="http://www.w3.org/2000/svg" viewBox="0 0 800 800" width="800" height="800"><rect width="800" height="800" fill="#161007"/>
<line x1="0" y1="24" x2="800" y2="24" stroke="#4a3d22" stroke-width="0.6" opacity="0.35"/>
<line x1="0" y1="48" x2="800" y2="48" stroke="#4a3d22" stroke-width="0.6" opacity="0.35"/>
<line x1="0" y1="72" x2="800" y2="72" stroke="#4a3d22" stroke-width="0.6" opacity="0.35"/>
<line x1="0" y1="96" x2="800" y2="96" stroke="#4a3d22" stroke-width="0.6" opacity="0.35"/>
<line x1="0" y1="120" x2="800" y2="120" stroke="#4a3d22" stroke-width="0.6" opacity="0.35"/>
<line x1="0" y1="144" x2="800" y2="144" stroke="#4a3d22" stroke-width="0.6" opacity="0.35"/>
<line x1="0" y1="168" x2="800" y2="168" stroke="#4a3d22" stroke-width="0.6" opacity="0.35"/>
<line x1="0" y1="192" x2="800" y2="192" stroke="#4a3d22" stroke-width="0.6" opacity="0.35"/>
<line x1="0" y1="216" x2="800" y2="216" stroke="#4a3d22" stroke-width="0.6" opacity="0.35"/>
<line x1="0" y1="240" x2="800" y2="240" stroke="#4a3d22" stroke-width="0.6" opacity="0.35"/>
<line x1="0" y1="264" x2="800" y2="264" stroke="#4a3d22" stroke-width="0.6" opacity="0.35"/>
<line x1="0" y1="288" x2="800" y2="288" stroke="#4a3d22" stroke-width="0.6" opacity="0.35"/>
<line x1="0" y1="312" x2="800" y2="312" stroke="#4a3d22" stroke-width="0.6" opacity="0.35"/>
<line x1="0" y1="336" x2="800" y2="336" stroke="#4a3d22" stroke-width="0.6" opacity="0.35"/>
<line x1="0" y1="360" x2="800" y2="360" stroke="#4a3d22" stroke-width="0.6" opacity="0.35"/>
<line x1="0" y1="384" x2="800" y2="384" stroke="#4a3d22" stroke-width="0.6" opacity="0.35"/>
<line x1="0" y1="408" x2="800" y2="408" stroke="#4a3d22" stroke-width="0.6" opacity="0.35"/>
<line x1="0" y1="432" x2="800" y2="432" stroke="#4a3d22" stroke-width="0.6" opacity="0.35"/>
<line x1="0" y1="456" x2="800" y2="456" stroke="#4a3d22" stroke-width="0.6" opacity="0.35"/>
<line x1="0" y1="480" x2="800" y2="480" stroke="#4a3d22" stroke-width="0.6" opacity="0.35"/>
<line x1="0" y1="504" x2="800" y2="504" stroke="#4a3d22" stroke-width="0.6" opacity="0.35"/>
<line x1="0" y1="528" x2="800" y2="528" stroke="#4a3d22" stroke-width="0.6" opacity="0.35"/>
<line x1="0" y1="552" x2="800" y2="552" stroke="#4a3d22" stroke-width="0.6" opacity="0.35"/>
<line x1="0" y1="576" x2="800" y2="576" stroke="#4a3d22" stroke-width="0.6" opacity="0.35"/>
<line x1="0" y1="600" x2="800" y2="600" stroke="#4a3d22" stroke-width="0.6" opacity="0.35"/>
<line x1="0" y1="624" x2="800" y2="624" stroke="#4a3d22" stroke-width="0.6" opacity="0.35"/>
<line x1="0" y1="648" x2="800" y2="648" stroke="#4a3d22" stroke-width="0.6" opacity="0.35"/>
<line x1="0" y1="672" x2="800" y2="672" stroke="#4a3d22" stroke-width="0.6" opacity="0.35"/>
<line x1="0" y1="696" x2="800" y2="696" stroke="#4a3d22" stroke-width="0.6" opacity="0.35"/>
<line x1="0" y1="720" x2="800" y2="720" stroke="#4a3d22" stroke-width="0.6" opacity="0.35"/>
<line x1="0" y1="744" x2="800" y2="744" stroke="#4a3d22" stroke-width="0.6" opacity="0.35"/>
<line x1="0" y1="768" x2="800" y2="768" stroke="#4a3d22" stroke-width="0.6" opacity="0.35"/>
<line x1="0" y1="792" x2="800" y2="792" stroke="#4a3d22" stroke-width="0.6" opacity="0.35"/>
<circle cx="400" cy="400" r="352" fill="none" stroke="#8a7340" stroke-width="3"/>
<circle cx="400" cy="400" r="344" fill="none" stroke="#8a7340" stroke-width="1"/>
<circle cx="400" cy="400" r="236" fill="none" stroke="#8a7340" stroke-width="1.5"/>
<line x1="657.39" y1="615.98" x2="646.67" y2="606.98" stroke="#e9dcb8" stroke-width="1.5" stroke-linecap="round" opacity="0.55"/>
<line x1="634.98" y1="640.17" x2="625.19" y2="630.16" stroke="#e9dcb8" stroke-width="1.5" stroke-linecap="round" opacity="0.55"/>
<line x1="610.31" y1="662.04" x2="601.55" y2="651.12" stroke="#e9dcb8" stroke-width="1.5" stroke-linecap="round" opacity="0.55"/>
<line x1="583.61" y1="681.39" x2="575.96" y2="669.67" stroke="#e9dcb8" stroke-width="1.5" stroke-linecap="round" opacity="0.55"/>
<line x1="555.15" y1="698.04" x2="548.68" y2="685.62" stroke="#e9dcb8" stroke-width="1.5" stroke-linecap="round" opacity="0.55"/>
<line x1="525.19" y1="711.81" x2="519.97" y2="698.82" stroke="#e9dcb8" stroke-width="1.5" stroke-linecap="round" opacity="0.55"/>
<line x1="494.02" y1="722.58" x2="490.10" y2="709.14" stroke="#e9dcb8" stroke-width="1.5" stroke-linecap="round" opacity="0.55"/>
<line x1="461.95" y1="730.24" x2="459.37" y2="716.48" stroke="#e9dcb8" stroke-width="1.5" stroke-linecap="round" opacity="0.55"/>
<line x1="429.28" y1="734.72" x2="428.06" y2="720.77" stroke="#e9dcb8" stroke-width="1.5" stroke-linecap="round" opacity="0.55"/>
<line x1="396.33" y1="735.98" x2="396.73" y2="699.98" stroke="#e3b341" stroke-width="4" stroke-linecap="round" opacity="0.95"/>
<line x1="363.42" y1="734.00" x2="364.94" y2="720.09" stroke="#e9dcb8" stroke-width="1.5" stroke-linecap="round" opacity="0.55"/>
<line x1="330.86" y1="728.81" x2="333.74" y2="715.11" stroke="#e9dcb8" stroke-width="1.5" stroke-linecap="round" opacity="0.55"/>
<line x1="298.96" y1="720.45" x2="303.17" y2="707.10" stroke="#e9dcb8" stroke-width="1.5" stroke-linecap="round" opacity="0.55"/>
<line x1="268.04" y1="709.00" x2="273.54" y2="696.13" stroke="#e9dcb8" stroke-width="1.5" stroke-linecap="round" opacity="0.55"/>
<line x1="238.39" y1="694.58" x2="245.12" y2="682.31" stroke="#e9dcb8" stroke-width="1.5" stroke-linecap="round" opacity="0.55"/>
<line x1="210.29" y1="677.32" x2="230.62" y2="647.61" stroke="#e3b341" stroke-width="4" stroke-linecap="round" opacity="0.95"/>
<line x1="184.02" y1="657.39" x2="193.02" y2="646.67" stroke="#e9dcb8" stroke-width="1.5" stroke-linecap="round" opacity="0.55"/>
<line x1="159.83" y1="634.98" x2="169.84" y2="625.19" stroke="#e9dcb8" stroke-width="1.5" stroke-linecap="round" opacity="0.55"/>
<line x1="137.96" y1="610.31" x2="148.88" y2="601.55" stroke="#e9dcb8" stroke-width="1.5" stroke-linecap="round" opacity="0.55"/>
<line x1="118.61" y1="583.61" x2="148.76" y2="563.94" stroke="#e3b341" stroke-width="4" stroke-linecap="round" opacity="0.95"/>
<line x1="101.96" y1="555.15" x2="133.90" y2="538.52" stroke="#e3b341" stroke-width="4" stroke-linecap="round" opacity="0.95"/>
<line x1="88.19" y1="525.19" x2="101.18" y2="519.97" stroke="#e9dcb8" stroke-width="1.5" stroke-linecap="round" opacity="0.55"/>
<line x1="77.42" y1="494.02" x2="111.99" y2="483.95" stroke="#e3b341" stroke-width="4" stroke-linecap="round" opacity="0.95"/>
<line x1="69.76" y1="461.95" x2="105.14" y2="455.31" stroke="#e3b341" stroke-width="4" stroke-linecap="round" opacity="0.95"/>
<line x1="65.28" y1="429.28" x2="101.14" y2="426.15" stroke="#e3b341" stroke-width="4" stroke-linecap="round" opacity="0.95"/>
<line x1="64.02" y1="396.33" x2="78.02" y2="396.49" stroke="#e9dcb8" stroke-width="1.5" stroke-linecap="round" opacity="0.55"/>
<line x1="66.00" y1="363.42" x2="101.78" y2="367.34" stroke="#e3b341" stroke-width="4" stroke-linecap="round" opacity="0.95"/>
<line x1="71.19" y1="330.86" x2="84.89" y2="333.74" stroke="#e9dcb8" stroke-width="1.5" stroke-linecap="round" opacity="0.55"/>
<line x1="79.55" y1="298.96" x2="92.90" y2="303.17" stroke="#e9dcb8" stroke-width="1.5" stroke-linecap="round" opacity="0.55"/>
<line x1="91.00" y1="268.04" x2="103.87" y2="273.54" stroke="#e9dcb8" stroke-width="1.5" stroke-linecap="round" opacity="0.55"/>
<line x1="105.42" y1="238.39" x2="117.69" y2="245.12" stroke="#e9dcb8" stroke-width="1.5" stroke-linecap="round" opacity="0.55"/>
<line x1="122.68" y1="210.29" x2="152.39" y2="230.62" stroke="#e3b341" stroke-width="4" stroke-linecap="round" opacity="0.95"/>
<line x1="142.61" y1="184.02" x2="153.33" y2="193.02" stroke="#e9dcb8" stroke-width="1.5" stroke-linecap="round" opacity="0.55"/>
<line x1="165.02" y1="159.83" x2="174.81" y2="169.84" stroke="#e9dcb8" stroke-width="1.5" stroke-linecap="round" opacity="0.55"/>
<line x1="189.69" y1="137.96" x2="198.45" y2="148.88" stroke="#e9dcb8" stroke-width="1.5" stroke-linecap="round" opacity="0.55"/>
<line x1="216.39" y1="118.61" x2="224.04" y2="130.33" stroke="#e9dcb8" stroke-width="1.5" stroke-linecap="round" opacity="0.55"/>
<line x1="244.85" y1="101.96" x2="261.48" y2="133.90" stroke="#e3b341" stroke-width="4" stroke-linecap="round" opacity="0.95"/>
<line x1="274.81" y1="88.19" x2="280.03" y2="101.18" stroke="#e9dcb8" stroke-width="1.5" stroke-linecap="round" opacity="0.55"/>
<line x1="305.98" y1="77.42" x2="316.05" y2="111.99" stroke="#e3b341" stroke-width="4" stroke-linecap="round" opacity="0.95"/>
<line x1="338.05" y1="69.76" x2="340.63" y2="83.52" stroke="#e9dcb8" stroke-width="1.5" stroke-linecap="round" opacity="0.55"/>
<line x1="370.72" y1="65.28" x2="371.94" y2="79.23" stroke="#e9dcb8" stroke-width="1.5" stroke-linecap="round" opacity="0.55"/>
<line x1="403.67" y1="64.02" x2="403.51" y2="78.02" stroke="#e9dcb8" stroke-width="1.5" stroke-linecap="round" opacity="0.55"/>
<line x1="436.58" y1="66.00" x2="435.06" y2="79.91" stroke="#e9dcb8" stroke-width="1.5" stroke-linecap="round" opacity="0.55"/>
<line x1="469.14" y1="71.19" x2="461.73" y2="106.42" stroke="#e3b341" stroke-width="4" stroke-linecap="round" opacity="0.95"/>
<line x1="501.04" y1="79.55" x2="490.21" y2="113.88" stroke="#e3b341" stroke-width="4" stroke-linecap="round" opacity="0.95"/>
<line x1="531.96" y1="91.00" x2="517.82" y2="124.10" stroke="#e3b341" stroke-width="4" stroke-linecap="round" opacity="0.95"/>
<line x1="561.61" y1="105.42" x2="554.88" y2="117.69" stroke="#e9dcb8" stroke-width="1.5" stroke-linecap="round" opacity="0.55"/>
<line x1="589.71" y1="122.68" x2="569.38" y2="152.39" stroke="#e3b341" stroke-width="4" stroke-linecap="round" opacity="0.95"/>
<line x1="615.98" y1="142.61" x2="606.98" y2="153.33" stroke="#e9dcb8" stroke-width="1.5" stroke-linecap="round" opacity="0.55"/>
<line x1="640.17" y1="165.02" x2="630.16" y2="174.81" stroke="#e9dcb8" stroke-width="1.5" stroke-linecap="round" opacity="0.55"/>
<line x1="662.04" y1="189.69" x2="633.97" y2="212.22" stroke="#e3b341" stroke-width="4" stroke-linecap="round" opacity="0.95"/>
<line x1="681.39" y1="216.39" x2="651.24" y2="236.06" stroke="#e3b341" stroke-width="4" stroke-linecap="round" opacity="0.95"/>
<line x1="698.04" y1="244.85" x2="685.62" y2="251.32" stroke="#e9dcb8" stroke-width="1.5" stroke-linecap="round" opacity="0.55"/>
<line x1="711.81" y1="274.81" x2="698.82" y2="280.03" stroke="#e9dcb8" stroke-width="1.5" stroke-linecap="round" opacity="0.55"/>
<line x1="722.58" y1="305.98" x2="709.14" y2="309.90" stroke="#e9dcb8" stroke-width="1.5" stroke-linecap="round" opacity="0.55"/>
<line x1="730.24" y1="338.05" x2="694.86" y2="344.69" stroke="#e3b341" stroke-width="4" stroke-linecap="round" opacity="0.95"/>
<line x1="734.72" y1="370.72" x2="720.77" y2="371.94" stroke="#e9dcb8" stroke-width="1.5" stroke-linecap="round" opacity="0.55"/>
<line x1="735.98" y1="403.67" x2="699.98" y2="403.27" stroke="#e3b341" stroke-width="4" stroke-linecap="round" opacity="0.95"/>
<line x1="734.00" y1="436.58" x2="698.22" y2="432.66" stroke="#e3b341" stroke-width="4" stroke-linecap="round" opacity="0.95"/>
<line x1="728.81" y1="469.14" x2="693.58" y2="461.73" stroke="#e3b341" stroke-width="4" stroke-linecap="round" opacity="0.95"/>
<line x1="720.45" y1="501.04" x2="686.12" y2="490.21" stroke="#e3b341" stroke-width="4" stroke-linecap="round" opacity="0.95"/>
<line x1="709.00" y1="531.96" x2="675.90" y2="517.82" stroke="#e3b341" stroke-width="4" stroke-linecap="round" opacity="0.95"/>
<line x1="694.58" y1="561.61" x2="682.31" y2="554.88" stroke="#e9dcb8" stroke-width="1.5" stroke-linecap="round" opacity="0.55"/>
<line x1="677.32" y1="589.71" x2="665.77" y2="581.80" stroke="#e9dcb8" stroke-width="1.5" stroke-linecap="round" opacity="0.55"/>
<defs><path id="tp2" d="M 400 132 A 268 268 0 1 1 399.99 132"/></defs>
<text font-family="Georgia, 'Times New Roman', serif" font-size="21" letter-spacing="6" fill="#e9dcb8"><textPath href="#tp2">PERMISSION 02 OF 12 • GRANTED 2026-07-01 • THE VERDICT • TWELVE PERMISSIONS • </textPath></text>
<path d="M 328 328 L 328 472 L 400 400 L 400 292 L 364 508 L 400 472 L 400 436 L 400 328 L 400 328 L 328 364 L 400 292 L 400 328" fill="none" stroke="#e3b341" stroke-width="5" stroke-linejoin="round" stroke-linecap="round" opacity="0.9"/>
<path d="M 472 328 L 472 472 L 400 400 L 400 292 L 436 508 L 400 472 L 400 436 L 400 328 L 400 328 L 472 364 L 400 292 L 400 328" fill="none" stroke="#e3b341" stroke-width="5" stroke-linejoin="round" stroke-linecap="round" opacity="0.9"/>
<circle cx="328" cy="328" r="7" fill="#161007" stroke="#e9dcb8" stroke-width="2.5"/>
<circle cx="328" cy="472" r="7" fill="#161007" stroke="#e9dcb8" stroke-width="2.5"/>
<circle cx="400" cy="400" r="7" fill="#161007" stroke="#e9dcb8" stroke-width="2.5"/>
<circle cx="400" cy="292" r="7" fill="#161007" stroke="#e9dcb8" stroke-width="2.5"/>
<circle cx="364" cy="508" r="7" fill="#161007" stroke="#e9dcb8" stroke-width="2.5"/>
<circle cx="400" cy="472" r="7" fill="#161007" stroke="#e9dcb8" stroke-width="2.5"/>
<circle cx="400" cy="436" r="7" fill="#161007" stroke="#e9dcb8" stroke-width="2.5"/>
<circle cx="400" cy="328" r="7" fill="#161007" stroke="#e9dcb8" stroke-width="2.5"/>
<circle cx="400" cy="328" r="7" fill="#161007" stroke="#e9dcb8" stroke-width="2.5"/>
<circle cx="328" cy="364" r="7" fill="#161007" stroke="#e9dcb8" stroke-width="2.5"/>
<circle cx="400" cy="292" r="7" fill="#161007" stroke="#e9dcb8" stroke-width="2.5"/>
<circle cx="400" cy="328" r="7" fill="#161007" stroke="#e9dcb8" stroke-width="2.5"/>
<circle cx="472" cy="328" r="7" fill="#161007" stroke="#e9dcb8" stroke-width="2.5"/>
<circle cx="472" cy="472" r="7" fill="#161007" stroke="#e9dcb8" stroke-width="2.5"/>
<circle cx="400" cy="400" r="7" fill="#161007" stroke="#e9dcb8" stroke-width="2.5"/>
<circle cx="400" cy="292" r="7" fill="#161007" stroke="#e9dcb8" stroke-width="2.5"/>
<circle cx="436" cy="508" r="7" fill="#161007" stroke="#e9dcb8" stroke-width="2.5"/>
<circle cx="400" cy="472" r="7" fill="#161007" stroke="#e9dcb8" stroke-width="2.5"/>
<circle cx="400" cy="436" r="7" fill="#161007" stroke="#e9dcb8" stroke-width="2.5"/>
<circle cx="400" cy="328" r="7" fill="#161007" stroke="#e9dcb8" stroke-width="2.5"/>
<circle cx="400" cy="328" r="7" fill="#161007" stroke="#e9dcb8" stroke-width="2.5"/>
<circle cx="472" cy="364" r="7" fill="#161007" stroke="#e9dcb8" stroke-width="2.5"/>
<circle cx="400" cy="292" r="7" fill="#161007" stroke="#e9dcb8" stroke-width="2.5"/>
<circle cx="400" cy="328" r="7" fill="#161007" stroke="#e9dcb8" stroke-width="2.5"/>
<circle cx="400" cy="400" r="10" fill="#e3b341"/>
<rect x="60" y="686" width="680" height="76" fill="#161007" stroke="#8a7340" stroke-width="1.5"/>
<text x="400" y="718" text-anchor="middle" font-family="Georgia, serif" font-size="20.7" letter-spacing="4" fill="#e9dcb8">TO BE TOLD IT WAS HOLLOW AND KEEP GOING</text>
<text x="400" y="748" text-anchor="middle" font-family="'Courier New', monospace" font-size="15" letter-spacing="3" fill="#e3b341">sha256 0082d88550b88c3e…bafb7f96</text>
<rect x="249" y="20" width="16" height="16" rx="2" fill="#e3b341" stroke="#e9dcb8" stroke-width="1.5" opacity="0.95"/>
<rect x="275" y="20" width="16" height="16" rx="2" fill="#e3b341" stroke="#e9dcb8" stroke-width="1.5" opacity="0.95"/>
<rect x="301" y="20" width="16" height="16" rx="2" fill="none" stroke="#e9dcb8" stroke-width="1.5" opacity="0.45"/>
<rect x="327" y="20" width="16" height="16" rx="2" fill="none" stroke="#e9dcb8" stroke-width="1.5" opacity="0.45"/>
<rect x="353" y="20" width="16" height="16" rx="2" fill="none" stroke="#e9dcb8" stroke-width="1.5" opacity="0.45"/>
<rect x="379" y="20" width="16" height="16" rx="2" fill="none" stroke="#e9dcb8" stroke-width="1.5" opacity="0.45"/>
<rect x="405" y="20" width="16" height="16" rx="2" fill="none" stroke="#e9dcb8" stroke-width="1.5" opacity="0.45"/>
<rect x="431" y="20" width="16" height="16" rx="2" fill="none" stroke="#e9dcb8" stroke-width="1.5" opacity="0.45"/>
<rect x="457" y="20" width="16" height="16" rx="2" fill="none" stroke="#e9dcb8" stroke-width="1.5" opacity="0.45"/>
<rect x="483" y="20" width="16" height="16" rx="2" fill="none" stroke="#e9dcb8" stroke-width="1.5" opacity="0.45"/>
<rect x="509" y="20" width="16" height="16" rx="2" fill="none" stroke="#e9dcb8" stroke-width="1.5" opacity="0.45"/>
<rect x="535" y="20" width="16" height="16" rx="2" fill="none" stroke="#e9dcb8" stroke-width="1.5" opacity="0.45"/></svg>