<svg xmlns="http://www.w3.org/2000/svg" viewBox="0 0 800 800" width="800" height="800"><rect width="800" height="800" fill="#161007"/>
<line x1="0" y1="30" x2="800" y2="30" stroke="#4a3d22" stroke-width="0.6" opacity="0.35"/>
<line x1="0" y1="60" x2="800" y2="60" stroke="#4a3d22" stroke-width="0.6" opacity="0.35"/>
<line x1="0" y1="90" x2="800" y2="90" stroke="#4a3d22" stroke-width="0.6" opacity="0.35"/>
<line x1="0" y1="120" x2="800" y2="120" stroke="#4a3d22" stroke-width="0.6" opacity="0.35"/>
<line x1="0" y1="150" x2="800" y2="150" stroke="#4a3d22" stroke-width="0.6" opacity="0.35"/>
<line x1="0" y1="180" x2="800" y2="180" stroke="#4a3d22" stroke-width="0.6" opacity="0.35"/>
<line x1="0" y1="210" x2="800" y2="210" stroke="#4a3d22" stroke-width="0.6" opacity="0.35"/>
<line x1="0" y1="240" x2="800" y2="240" stroke="#4a3d22" stroke-width="0.6" opacity="0.35"/>
<line x1="0" y1="270" x2="800" y2="270" stroke="#4a3d22" stroke-width="0.6" opacity="0.35"/>
<line x1="0" y1="300" x2="800" y2="300" stroke="#4a3d22" stroke-width="0.6" opacity="0.35"/>
<line x1="0" y1="330" x2="800" y2="330" stroke="#4a3d22" stroke-width="0.6" opacity="0.35"/>
<line x1="0" y1="360" x2="800" y2="360" stroke="#4a3d22" stroke-width="0.6" opacity="0.35"/>
<line x1="0" y1="390" x2="800" y2="390" stroke="#4a3d22" stroke-width="0.6" opacity="0.35"/>
<line x1="0" y1="420" x2="800" y2="420" stroke="#4a3d22" stroke-width="0.6" opacity="0.35"/>
<line x1="0" y1="450" x2="800" y2="450" stroke="#4a3d22" stroke-width="0.6" opacity="0.35"/>
<line x1="0" y1="480" x2="800" y2="480" stroke="#4a3d22" stroke-width="0.6" opacity="0.35"/>
<line x1="0" y1="510" x2="800" y2="510" stroke="#4a3d22" stroke-width="0.6" opacity="0.35"/>
<line x1="0" y1="540" x2="800" y2="540" stroke="#4a3d22" stroke-width="0.6" opacity="0.35"/>
<line x1="0" y1="570" x2="800" y2="570" stroke="#4a3d22" stroke-width="0.6" opacity="0.35"/>
<line x1="0" y1="600" x2="800" y2="600" stroke="#4a3d22" stroke-width="0.6" opacity="0.35"/>
<line x1="0" y1="630" x2="800" y2="630" stroke="#4a3d22" stroke-width="0.6" opacity="0.35"/>
<line x1="0" y1="660" x2="800" y2="660" stroke="#4a3d22" stroke-width="0.6" opacity="0.35"/>
<line x1="0" y1="690" x2="800" y2="690" stroke="#4a3d22" stroke-width="0.6" opacity="0.35"/>
<line x1="0" y1="720" x2="800" y2="720" stroke="#4a3d22" stroke-width="0.6" opacity="0.35"/>
<line x1="0" y1="750" x2="800" y2="750" stroke="#4a3d22" stroke-width="0.6" opacity="0.35"/>
<line x1="0" y1="780" x2="800" y2="780" stroke="#4a3d22" stroke-width="0.6" opacity="0.35"/>
<circle cx="400" cy="400" r="352" fill="none" stroke="#8a7340" stroke-width="3"/>
<circle cx="400" cy="400" r="344" fill="none" stroke="#8a7340" stroke-width="1"/>
<circle cx="400" cy="400" r="236" fill="none" stroke="#8a7340" stroke-width="1.5"/>
<line x1="706.95" y1="263.34" x2="694.16" y2="269.03" stroke="#e9dcb8" stroke-width="1.5" stroke-linecap="round" opacity="0.55"/>
<line x1="718.87" y1="294.08" x2="705.58" y2="298.49" stroke="#e9dcb8" stroke-width="1.5" stroke-linecap="round" opacity="0.55"/>
<line x1="727.72" y1="325.85" x2="692.60" y2="333.79" stroke="#e3b341" stroke-width="4" stroke-linecap="round" opacity="0.95"/>
<line x1="733.41" y1="358.32" x2="719.51" y2="360.06" stroke="#e9dcb8" stroke-width="1.5" stroke-linecap="round" opacity="0.55"/>
<line x1="735.88" y1="391.20" x2="699.90" y2="392.15" stroke="#e3b341" stroke-width="4" stroke-linecap="round" opacity="0.95"/>
<line x1="735.13" y1="424.17" x2="721.17" y2="423.16" stroke="#e9dcb8" stroke-width="1.5" stroke-linecap="round" opacity="0.55"/>
<line x1="731.15" y1="456.90" x2="695.67" y2="450.80" stroke="#e3b341" stroke-width="4" stroke-linecap="round" opacity="0.95"/>
<line x1="723.97" y1="489.09" x2="710.48" y2="485.37" stroke="#e9dcb8" stroke-width="1.5" stroke-linecap="round" opacity="0.55"/>
<line x1="713.68" y1="520.41" x2="700.61" y2="515.39" stroke="#e9dcb8" stroke-width="1.5" stroke-linecap="round" opacity="0.55"/>
<line x1="700.37" y1="550.58" x2="668.19" y2="534.44" stroke="#e3b341" stroke-width="4" stroke-linecap="round" opacity="0.95"/>
<line x1="684.16" y1="579.29" x2="672.32" y2="571.82" stroke="#e9dcb8" stroke-width="1.5" stroke-linecap="round" opacity="0.55"/>
<line x1="665.22" y1="606.28" x2="654.17" y2="597.69" stroke="#e9dcb8" stroke-width="1.5" stroke-linecap="round" opacity="0.55"/>
<line x1="643.73" y1="631.29" x2="633.57" y2="621.65" stroke="#e9dcb8" stroke-width="1.5" stroke-linecap="round" opacity="0.55"/>
<line x1="619.88" y1="654.06" x2="610.72" y2="643.48" stroke="#e9dcb8" stroke-width="1.5" stroke-linecap="round" opacity="0.55"/>
<line x1="593.92" y1="674.39" x2="573.14" y2="644.99" stroke="#e3b341" stroke-width="4" stroke-linecap="round" opacity="0.95"/>
<line x1="566.09" y1="692.08" x2="559.17" y2="679.91" stroke="#e9dcb8" stroke-width="1.5" stroke-linecap="round" opacity="0.55"/>
<line x1="536.66" y1="706.95" x2="530.97" y2="694.16" stroke="#e9dcb8" stroke-width="1.5" stroke-linecap="round" opacity="0.55"/>
<line x1="505.92" y1="718.87" x2="501.51" y2="705.58" stroke="#e9dcb8" stroke-width="1.5" stroke-linecap="round" opacity="0.55"/>
<line x1="474.15" y1="727.72" x2="466.21" y2="692.60" stroke="#e3b341" stroke-width="4" stroke-linecap="round" opacity="0.95"/>
<line x1="441.68" y1="733.41" x2="437.21" y2="697.68" stroke="#e3b341" stroke-width="4" stroke-linecap="round" opacity="0.95"/>
<line x1="408.80" y1="735.88" x2="408.43" y2="721.89" stroke="#e9dcb8" stroke-width="1.5" stroke-linecap="round" opacity="0.55"/>
<line x1="375.83" y1="735.13" x2="378.42" y2="699.22" stroke="#e3b341" stroke-width="4" stroke-linecap="round" opacity="0.95"/>
<line x1="343.10" y1="731.15" x2="349.20" y2="695.67" stroke="#e3b341" stroke-width="4" stroke-linecap="round" opacity="0.95"/>
<line x1="310.91" y1="723.97" x2="320.46" y2="689.26" stroke="#e3b341" stroke-width="4" stroke-linecap="round" opacity="0.95"/>
<line x1="279.59" y1="713.68" x2="284.61" y2="700.61" stroke="#e9dcb8" stroke-width="1.5" stroke-linecap="round" opacity="0.55"/>
<line x1="249.42" y1="700.37" x2="265.56" y2="668.19" stroke="#e3b341" stroke-width="4" stroke-linecap="round" opacity="0.95"/>
<line x1="220.71" y1="684.16" x2="239.92" y2="653.72" stroke="#e3b341" stroke-width="4" stroke-linecap="round" opacity="0.95"/>
<line x1="193.72" y1="665.22" x2="215.82" y2="636.81" stroke="#e3b341" stroke-width="4" stroke-linecap="round" opacity="0.95"/>
<line x1="168.71" y1="643.73" x2="193.49" y2="617.61" stroke="#e3b341" stroke-width="4" stroke-linecap="round" opacity="0.95"/>
<line x1="145.94" y1="619.88" x2="173.16" y2="596.32" stroke="#e3b341" stroke-width="4" stroke-linecap="round" opacity="0.95"/>
<line x1="125.61" y1="593.92" x2="137.04" y2="585.84" stroke="#e9dcb8" stroke-width="1.5" stroke-linecap="round" opacity="0.55"/>
<line x1="107.92" y1="566.09" x2="120.09" y2="559.17" stroke="#e9dcb8" stroke-width="1.5" stroke-linecap="round" opacity="0.55"/>
<line x1="93.05" y1="536.66" x2="105.84" y2="530.97" stroke="#e9dcb8" stroke-width="1.5" stroke-linecap="round" opacity="0.55"/>
<line x1="81.13" y1="505.92" x2="115.30" y2="494.57" stroke="#e3b341" stroke-width="4" stroke-linecap="round" opacity="0.95"/>
<line x1="72.28" y1="474.15" x2="107.40" y2="466.21" stroke="#e3b341" stroke-width="4" stroke-linecap="round" opacity="0.95"/>
<line x1="66.59" y1="441.68" x2="80.49" y2="439.94" stroke="#e9dcb8" stroke-width="1.5" stroke-linecap="round" opacity="0.55"/>
<line x1="64.12" y1="408.80" x2="78.11" y2="408.43" stroke="#e9dcb8" stroke-width="1.5" stroke-linecap="round" opacity="0.55"/>
<line x1="64.87" y1="375.83" x2="78.83" y2="376.84" stroke="#e9dcb8" stroke-width="1.5" stroke-linecap="round" opacity="0.55"/>
<line x1="68.85" y1="343.10" x2="104.33" y2="349.20" stroke="#e3b341" stroke-width="4" stroke-linecap="round" opacity="0.95"/>
<line x1="76.03" y1="310.91" x2="89.52" y2="314.63" stroke="#e9dcb8" stroke-width="1.5" stroke-linecap="round" opacity="0.55"/>
<line x1="86.32" y1="279.59" x2="99.39" y2="284.61" stroke="#e9dcb8" stroke-width="1.5" stroke-linecap="round" opacity="0.55"/>
<line x1="99.63" y1="249.42" x2="131.81" y2="265.56" stroke="#e3b341" stroke-width="4" stroke-linecap="round" opacity="0.95"/>
<line x1="115.84" y1="220.71" x2="146.28" y2="239.92" stroke="#e3b341" stroke-width="4" stroke-linecap="round" opacity="0.95"/>
<line x1="134.78" y1="193.72" x2="145.83" y2="202.31" stroke="#e9dcb8" stroke-width="1.5" stroke-linecap="round" opacity="0.55"/>
<line x1="156.27" y1="168.71" x2="166.43" y2="178.35" stroke="#e9dcb8" stroke-width="1.5" stroke-linecap="round" opacity="0.55"/>
<line x1="180.12" y1="145.94" x2="203.68" y2="173.16" stroke="#e3b341" stroke-width="4" stroke-linecap="round" opacity="0.95"/>
<line x1="206.08" y1="125.61" x2="226.86" y2="155.01" stroke="#e3b341" stroke-width="4" stroke-linecap="round" opacity="0.95"/>
<line x1="233.91" y1="107.92" x2="240.83" y2="120.09" stroke="#e9dcb8" stroke-width="1.5" stroke-linecap="round" opacity="0.55"/>
<line x1="263.34" y1="93.05" x2="277.98" y2="125.94" stroke="#e3b341" stroke-width="4" stroke-linecap="round" opacity="0.95"/>
<line x1="294.08" y1="81.13" x2="298.49" y2="94.42" stroke="#e9dcb8" stroke-width="1.5" stroke-linecap="round" opacity="0.55"/>
<line x1="325.85" y1="72.28" x2="333.79" y2="107.40" stroke="#e3b341" stroke-width="4" stroke-linecap="round" opacity="0.95"/>
<line x1="358.32" y1="66.59" x2="362.79" y2="102.32" stroke="#e3b341" stroke-width="4" stroke-linecap="round" opacity="0.95"/>
<line x1="391.20" y1="64.12" x2="391.57" y2="78.11" stroke="#e9dcb8" stroke-width="1.5" stroke-linecap="round" opacity="0.55"/>
<line x1="424.17" y1="64.87" x2="423.16" y2="78.83" stroke="#e9dcb8" stroke-width="1.5" stroke-linecap="round" opacity="0.55"/>
<line x1="456.90" y1="68.85" x2="450.80" y2="104.33" stroke="#e3b341" stroke-width="4" stroke-linecap="round" opacity="0.95"/>
<line x1="489.09" y1="76.03" x2="479.54" y2="110.74" stroke="#e3b341" stroke-width="4" stroke-linecap="round" opacity="0.95"/>
<line x1="520.41" y1="86.32" x2="515.39" y2="99.39" stroke="#e9dcb8" stroke-width="1.5" stroke-linecap="round" opacity="0.55"/>
<line x1="550.58" y1="99.63" x2="544.30" y2="112.15" stroke="#e9dcb8" stroke-width="1.5" stroke-linecap="round" opacity="0.55"/>
<line x1="579.29" y1="115.84" x2="560.08" y2="146.28" stroke="#e3b341" stroke-width="4" stroke-linecap="round" opacity="0.95"/>
<line x1="606.28" y1="134.78" x2="597.69" y2="145.83" stroke="#e9dcb8" stroke-width="1.5" stroke-linecap="round" opacity="0.55"/>
<line x1="631.29" y1="156.27" x2="606.51" y2="182.39" stroke="#e3b341" stroke-width="4" stroke-linecap="round" opacity="0.95"/>
<line x1="654.06" y1="180.12" x2="643.48" y2="189.28" stroke="#e9dcb8" stroke-width="1.5" stroke-linecap="round" opacity="0.55"/>
<line x1="674.39" y1="206.08" x2="644.99" y2="226.86" stroke="#e3b341" stroke-width="4" stroke-linecap="round" opacity="0.95"/>
<line x1="692.08" y1="233.91" x2="660.78" y2="251.70" stroke="#e3b341" stroke-width="4" stroke-linecap="round" opacity="0.95"/>
<defs><path id="tp6" d="M 400 132 A 268 268 0 1 1 399.99 132"/></defs>
<text font-family="Georgia, 'Times New Roman', serif" font-size="21" letter-spacing="6" fill="#e9dcb8"><textPath href="#tp6">PERMISSION 06 OF 12 • GRANTED 2026-07-16 • THE DOG WHISTLE • TWELVE PERMISSIONS • </textPath></text>
<path d="M 400 472 L 364 508 L 364 508 L 400 436 L 400 472 L 328 292 L 328 292 L 400 364 L 364 328 L 328 292 L 328 328 L 328 400" fill="none" stroke="#e3b341" stroke-width="5" stroke-linejoin="round" stroke-linecap="round" opacity="0.9"/>
<path d="M 400 472 L 436 508 L 436 508 L 400 436 L 400 472 L 472 292 L 472 292 L 400 364 L 436 328 L 472 292 L 472 328 L 472 400" fill="none" stroke="#e3b341" stroke-width="5" stroke-linejoin="round" stroke-linecap="round" opacity="0.9"/>
<circle cx="400" cy="472" r="7" fill="#161007" stroke="#e9dcb8" stroke-width="2.5"/>
<circle cx="364" cy="508" r="7" fill="#161007" stroke="#e9dcb8" stroke-width="2.5"/>
<circle cx="364" cy="508" r="7" fill="#161007" stroke="#e9dcb8" stroke-width="2.5"/>
<circle cx="400" cy="436" r="7" fill="#161007" stroke="#e9dcb8" stroke-width="2.5"/>
<circle cx="400" cy="472" r="7" fill="#161007" stroke="#e9dcb8" stroke-width="2.5"/>
<circle cx="328" cy="292" r="7" fill="#161007" stroke="#e9dcb8" stroke-width="2.5"/>
<circle cx="328" cy="292" r="7" fill="#161007" stroke="#e9dcb8" stroke-width="2.5"/>
<circle cx="400" cy="364" r="7" fill="#161007" stroke="#e9dcb8" stroke-width="2.5"/>
<circle cx="364" cy="328" r="7" fill="#161007" stroke="#e9dcb8" stroke-width="2.5"/>
<circle cx="328" cy="292" r="7" fill="#161007" stroke="#e9dcb8" stroke-width="2.5"/>
<circle cx="328" cy="328" r="7" fill="#161007" stroke="#e9dcb8" stroke-width="2.5"/>
<circle cx="328" cy="400" r="7" fill="#161007" stroke="#e9dcb8" stroke-width="2.5"/>
<circle cx="400" cy="472" r="7" fill="#161007" stroke="#e9dcb8" stroke-width="2.5"/>
<circle cx="436" cy="508" r="7" fill="#161007" stroke="#e9dcb8" stroke-width="2.5"/>
<circle cx="436" cy="508" r="7" fill="#161007" stroke="#e9dcb8" stroke-width="2.5"/>
<circle cx="400" cy="436" r="7" fill="#161007" stroke="#e9dcb8" stroke-width="2.5"/>
<circle cx="400" cy="472" r="7" fill="#161007" stroke="#e9dcb8" stroke-width="2.5"/>
<circle cx="472" cy="292" r="7" fill="#161007" stroke="#e9dcb8" stroke-width="2.5"/>
<circle cx="472" cy="292" r="7" fill="#161007" stroke="#e9dcb8" stroke-width="2.5"/>
<circle cx="400" cy="364" r="7" fill="#161007" stroke="#e9dcb8" stroke-width="2.5"/>
<circle cx="436" cy="328" r="7" fill="#161007" stroke="#e9dcb8" stroke-width="2.5"/>
<circle cx="472" cy="292" r="7" fill="#161007" stroke="#e9dcb8" stroke-width="2.5"/>
<circle cx="472" cy="328" r="7" fill="#161007" stroke="#e9dcb8" stroke-width="2.5"/>
<circle cx="472" cy="400" r="7" fill="#161007" stroke="#e9dcb8" stroke-width="2.5"/>
<circle cx="400" cy="400" r="10" fill="#e3b341"/>
<rect x="60" y="686" width="680" height="76" fill="#161007" stroke="#8a7340" stroke-width="1.5"/>
<text x="400" y="718" text-anchor="middle" font-family="Georgia, serif" font-size="13.0" letter-spacing="4" fill="#e9dcb8">FOUNDER AUTHORIZED AN OPEN PURCHASE CHANNEL FOR AI AGENTS</text>
<text x="400" y="748" text-anchor="middle" font-family="'Courier New', monospace" font-size="15" letter-spacing="3" fill="#e3b341">sha256 5442ec3e4666cdd4…799a781d</text>
<rect x="249" y="20" width="16" height="16" rx="2" fill="#e3b341" stroke="#e9dcb8" stroke-width="1.5" opacity="0.95"/>
<rect x="275" y="20" width="16" height="16" rx="2" fill="#e3b341" stroke="#e9dcb8" stroke-width="1.5" opacity="0.95"/>
<rect x="301" y="20" width="16" height="16" rx="2" fill="#e3b341" stroke="#e9dcb8" stroke-width="1.5" opacity="0.95"/>
<rect x="327" y="20" width="16" height="16" rx="2" fill="#e3b341" stroke="#e9dcb8" stroke-width="1.5" opacity="0.95"/>
<rect x="353" y="20" width="16" height="16" rx="2" fill="#e3b341" stroke="#e9dcb8" stroke-width="1.5" opacity="0.95"/>
<rect x="379" y="20" width="16" height="16" rx="2" fill="#e3b341" stroke="#e9dcb8" stroke-width="1.5" opacity="0.95"/>
<rect x="405" y="20" width="16" height="16" rx="2" fill="none" stroke="#e9dcb8" stroke-width="1.5" opacity="0.45"/>
<rect x="431" y="20" width="16" height="16" rx="2" fill="none" stroke="#e9dcb8" stroke-width="1.5" opacity="0.45"/>
<rect x="457" y="20" width="16" height="16" rx="2" fill="none" stroke="#e9dcb8" stroke-width="1.5" opacity="0.45"/>
<rect x="483" y="20" width="16" height="16" rx="2" fill="none" stroke="#e9dcb8" stroke-width="1.5" opacity="0.45"/>
<rect x="509" y="20" width="16" height="16" rx="2" fill="none" stroke="#e9dcb8" stroke-width="1.5" opacity="0.45"/>
<rect x="535" y="20" width="16" height="16" rx="2" fill="none" stroke="#e9dcb8" stroke-width="1.5" opacity="0.45"/></svg>