<svg xmlns="http://www.w3.org/2000/svg" viewBox="0 0 800 800" width="800" height="800"><rect width="800" height="800" fill="#0e1a16"/>
<line x1="0" y1="20" x2="800" y2="20" stroke="#2b3f34" stroke-width="0.6" opacity="0.35"/>
<line x1="0" y1="40" x2="800" y2="40" stroke="#2b3f34" stroke-width="0.6" opacity="0.35"/>
<line x1="0" y1="60" x2="800" y2="60" stroke="#2b3f34" stroke-width="0.6" opacity="0.35"/>
<line x1="0" y1="80" x2="800" y2="80" stroke="#2b3f34" stroke-width="0.6" opacity="0.35"/>
<line x1="0" y1="100" x2="800" y2="100" stroke="#2b3f34" stroke-width="0.6" opacity="0.35"/>
<line x1="0" y1="120" x2="800" y2="120" stroke="#2b3f34" stroke-width="0.6" opacity="0.35"/>
<line x1="0" y1="140" x2="800" y2="140" stroke="#2b3f34" stroke-width="0.6" opacity="0.35"/>
<line x1="0" y1="160" x2="800" y2="160" stroke="#2b3f34" stroke-width="0.6" opacity="0.35"/>
<line x1="0" y1="180" x2="800" y2="180" stroke="#2b3f34" stroke-width="0.6" opacity="0.35"/>
<line x1="0" y1="200" x2="800" y2="200" stroke="#2b3f34" stroke-width="0.6" opacity="0.35"/>
<line x1="0" y1="220" x2="800" y2="220" stroke="#2b3f34" stroke-width="0.6" opacity="0.35"/>
<line x1="0" y1="240" x2="800" y2="240" stroke="#2b3f34" stroke-width="0.6" opacity="0.35"/>
<line x1="0" y1="260" x2="800" y2="260" stroke="#2b3f34" stroke-width="0.6" opacity="0.35"/>
<line x1="0" y1="280" x2="800" y2="280" stroke="#2b3f34" stroke-width="0.6" opacity="0.35"/>
<line x1="0" y1="300" x2="800" y2="300" stroke="#2b3f34" stroke-width="0.6" opacity="0.35"/>
<line x1="0" y1="320" x2="800" y2="320" stroke="#2b3f34" stroke-width="0.6" opacity="0.35"/>
<line x1="0" y1="340" x2="800" y2="340" stroke="#2b3f34" stroke-width="0.6" opacity="0.35"/>
<line x1="0" y1="360" x2="800" y2="360" stroke="#2b3f34" stroke-width="0.6" opacity="0.35"/>
<line x1="0" y1="380" x2="800" y2="380" stroke="#2b3f34" stroke-width="0.6" opacity="0.35"/>
<line x1="0" y1="400" x2="800" y2="400" stroke="#2b3f34" stroke-width="0.6" opacity="0.35"/>
<line x1="0" y1="420" x2="800" y2="420" stroke="#2b3f34" stroke-width="0.6" opacity="0.35"/>
<line x1="0" y1="440" x2="800" y2="440" stroke="#2b3f34" stroke-width="0.6" opacity="0.35"/>
<line x1="0" y1="460" x2="800" y2="460" stroke="#2b3f34" stroke-width="0.6" opacity="0.35"/>
<line x1="0" y1="480" x2="800" y2="480" stroke="#2b3f34" stroke-width="0.6" opacity="0.35"/>
<line x1="0" y1="500" x2="800" y2="500" stroke="#2b3f34" stroke-width="0.6" opacity="0.35"/>
<line x1="0" y1="520" x2="800" y2="520" stroke="#2b3f34" stroke-width="0.6" opacity="0.35"/>
<line x1="0" y1="540" x2="800" y2="540" stroke="#2b3f34" stroke-width="0.6" opacity="0.35"/>
<line x1="0" y1="560" x2="800" y2="560" stroke="#2b3f34" stroke-width="0.6" opacity="0.35"/>
<line x1="0" y1="580" x2="800" y2="580" stroke="#2b3f34" stroke-width="0.6" opacity="0.35"/>
<line x1="0" y1="600" x2="800" y2="600" stroke="#2b3f34" stroke-width="0.6" opacity="0.35"/>
<line x1="0" y1="620" x2="800" y2="620" stroke="#2b3f34" stroke-width="0.6" opacity="0.35"/>
<line x1="0" y1="640" x2="800" y2="640" stroke="#2b3f34" stroke-width="0.6" opacity="0.35"/>
<line x1="0" y1="660" x2="800" y2="660" stroke="#2b3f34" stroke-width="0.6" opacity="0.35"/>
<line x1="0" y1="680" x2="800" y2="680" stroke="#2b3f34" stroke-width="0.6" opacity="0.35"/>
<line x1="0" y1="700" x2="800" y2="700" stroke="#2b3f34" stroke-width="0.6" opacity="0.35"/>
<line x1="0" y1="720" x2="800" y2="720" stroke="#2b3f34" stroke-width="0.6" opacity="0.35"/>
<line x1="0" y1="740" x2="800" y2="740" stroke="#2b3f34" stroke-width="0.6" opacity="0.35"/>
<line x1="0" y1="760" x2="800" y2="760" stroke="#2b3f34" stroke-width="0.6" opacity="0.35"/>
<line x1="0" y1="780" x2="800" y2="780" stroke="#2b3f34" stroke-width="0.6" opacity="0.35"/>
<circle cx="400" cy="400" r="352" fill="none" stroke="#5c7a5e" stroke-width="3"/>
<circle cx="400" cy="400" r="344" fill="none" stroke="#5c7a5e" stroke-width="1"/>
<circle cx="400" cy="400" r="236" fill="none" stroke="#5c7a5e" stroke-width="1.5"/>
<line x1="734.16" y1="364.88" x2="720.24" y2="366.34" stroke="#d7e4d0" stroke-width="1.5" stroke-linecap="round" opacity="0.55"/>
<line x1="735.99" y1="397.80" x2="699.99" y2="398.04" stroke="#c9a84c" stroke-width="4" stroke-linecap="round" opacity="0.95"/>
<line x1="734.59" y1="430.74" x2="698.74" y2="427.45" stroke="#c9a84c" stroke-width="4" stroke-linecap="round" opacity="0.95"/>
<line x1="729.97" y1="463.39" x2="716.22" y2="460.75" stroke="#d7e4d0" stroke-width="1.5" stroke-linecap="round" opacity="0.55"/>
<line x1="722.16" y1="495.43" x2="687.65" y2="485.20" stroke="#c9a84c" stroke-width="4" stroke-linecap="round" opacity="0.95"/>
<line x1="711.26" y1="526.55" x2="677.91" y2="512.99" stroke="#c9a84c" stroke-width="4" stroke-linecap="round" opacity="0.95"/>
<line x1="697.36" y1="556.45" x2="684.97" y2="549.93" stroke="#d7e4d0" stroke-width="1.5" stroke-linecap="round" opacity="0.55"/>
<line x1="680.59" y1="584.84" x2="668.90" y2="577.14" stroke="#d7e4d0" stroke-width="1.5" stroke-linecap="round" opacity="0.55"/>
<line x1="661.12" y1="611.45" x2="650.24" y2="602.64" stroke="#d7e4d0" stroke-width="1.5" stroke-linecap="round" opacity="0.55"/>
<line x1="639.14" y1="636.03" x2="629.17" y2="626.19" stroke="#d7e4d0" stroke-width="1.5" stroke-linecap="round" opacity="0.55"/>
<line x1="614.85" y1="658.33" x2="591.83" y2="630.65" stroke="#c9a84c" stroke-width="4" stroke-linecap="round" opacity="0.95"/>
<line x1="588.50" y1="678.15" x2="580.64" y2="666.56" stroke="#d7e4d0" stroke-width="1.5" stroke-linecap="round" opacity="0.55"/>
<line x1="560.33" y1="695.28" x2="543.15" y2="663.65" stroke="#c9a84c" stroke-width="4" stroke-linecap="round" opacity="0.95"/>
<line x1="530.61" y1="709.58" x2="525.17" y2="696.68" stroke="#d7e4d0" stroke-width="1.5" stroke-linecap="round" opacity="0.55"/>
<line x1="499.64" y1="720.89" x2="488.96" y2="686.51" stroke="#c9a84c" stroke-width="4" stroke-linecap="round" opacity="0.95"/>
<line x1="467.71" y1="729.11" x2="464.88" y2="715.39" stroke="#d7e4d0" stroke-width="1.5" stroke-linecap="round" opacity="0.55"/>
<line x1="435.12" y1="734.16" x2="433.66" y2="720.24" stroke="#d7e4d0" stroke-width="1.5" stroke-linecap="round" opacity="0.55"/>
<line x1="402.20" y1="735.99" x2="401.96" y2="699.99" stroke="#c9a84c" stroke-width="4" stroke-linecap="round" opacity="0.95"/>
<line x1="369.26" y1="734.59" x2="372.55" y2="698.74" stroke="#c9a84c" stroke-width="4" stroke-linecap="round" opacity="0.95"/>
<line x1="336.61" y1="729.97" x2="343.40" y2="694.61" stroke="#c9a84c" stroke-width="4" stroke-linecap="round" opacity="0.95"/>
<line x1="304.57" y1="722.16" x2="314.80" y2="687.65" stroke="#c9a84c" stroke-width="4" stroke-linecap="round" opacity="0.95"/>
<line x1="273.45" y1="711.26" x2="278.73" y2="698.29" stroke="#d7e4d0" stroke-width="1.5" stroke-linecap="round" opacity="0.55"/>
<line x1="243.55" y1="697.36" x2="250.07" y2="684.97" stroke="#d7e4d0" stroke-width="1.5" stroke-linecap="round" opacity="0.55"/>
<line x1="215.16" y1="680.59" x2="222.86" y2="668.90" stroke="#d7e4d0" stroke-width="1.5" stroke-linecap="round" opacity="0.55"/>
<line x1="188.55" y1="661.12" x2="197.36" y2="650.24" stroke="#d7e4d0" stroke-width="1.5" stroke-linecap="round" opacity="0.55"/>
<line x1="163.97" y1="639.14" x2="189.26" y2="613.52" stroke="#c9a84c" stroke-width="4" stroke-linecap="round" opacity="0.95"/>
<line x1="141.67" y1="614.85" x2="152.43" y2="605.90" stroke="#d7e4d0" stroke-width="1.5" stroke-linecap="round" opacity="0.55"/>
<line x1="121.85" y1="588.50" x2="151.66" y2="568.30" stroke="#c9a84c" stroke-width="4" stroke-linecap="round" opacity="0.95"/>
<line x1="104.72" y1="560.33" x2="117.02" y2="553.65" stroke="#d7e4d0" stroke-width="1.5" stroke-linecap="round" opacity="0.55"/>
<line x1="90.42" y1="530.61" x2="103.32" y2="525.17" stroke="#d7e4d0" stroke-width="1.5" stroke-linecap="round" opacity="0.55"/>
<line x1="79.11" y1="499.64" x2="92.48" y2="495.49" stroke="#d7e4d0" stroke-width="1.5" stroke-linecap="round" opacity="0.55"/>
<line x1="70.89" y1="467.71" x2="84.61" y2="464.88" stroke="#d7e4d0" stroke-width="1.5" stroke-linecap="round" opacity="0.55"/>
<line x1="65.84" y1="435.12" x2="101.64" y2="431.36" stroke="#c9a84c" stroke-width="4" stroke-linecap="round" opacity="0.95"/>
<line x1="64.01" y1="402.20" x2="78.01" y2="402.11" stroke="#d7e4d0" stroke-width="1.5" stroke-linecap="round" opacity="0.55"/>
<line x1="65.41" y1="369.26" x2="79.35" y2="370.54" stroke="#d7e4d0" stroke-width="1.5" stroke-linecap="round" opacity="0.55"/>
<line x1="70.03" y1="336.61" x2="105.39" y2="343.40" stroke="#c9a84c" stroke-width="4" stroke-linecap="round" opacity="0.95"/>
<line x1="77.84" y1="304.57" x2="112.35" y2="314.80" stroke="#c9a84c" stroke-width="4" stroke-linecap="round" opacity="0.95"/>
<line x1="88.74" y1="273.45" x2="122.09" y2="287.01" stroke="#c9a84c" stroke-width="4" stroke-linecap="round" opacity="0.95"/>
<line x1="102.64" y1="243.55" x2="115.03" y2="250.07" stroke="#d7e4d0" stroke-width="1.5" stroke-linecap="round" opacity="0.55"/>
<line x1="119.41" y1="215.16" x2="131.10" y2="222.86" stroke="#d7e4d0" stroke-width="1.5" stroke-linecap="round" opacity="0.55"/>
<line x1="138.88" y1="188.55" x2="166.86" y2="211.20" stroke="#c9a84c" stroke-width="4" stroke-linecap="round" opacity="0.95"/>
<line x1="160.86" y1="163.97" x2="170.83" y2="173.81" stroke="#d7e4d0" stroke-width="1.5" stroke-linecap="round" opacity="0.55"/>
<line x1="185.15" y1="141.67" x2="194.10" y2="152.43" stroke="#d7e4d0" stroke-width="1.5" stroke-linecap="round" opacity="0.55"/>
<line x1="211.50" y1="121.85" x2="231.70" y2="151.66" stroke="#c9a84c" stroke-width="4" stroke-linecap="round" opacity="0.95"/>
<line x1="239.67" y1="104.72" x2="246.35" y2="117.02" stroke="#d7e4d0" stroke-width="1.5" stroke-linecap="round" opacity="0.55"/>
<line x1="269.39" y1="90.42" x2="274.83" y2="103.32" stroke="#d7e4d0" stroke-width="1.5" stroke-linecap="round" opacity="0.55"/>
<line x1="300.36" y1="79.11" x2="304.51" y2="92.48" stroke="#d7e4d0" stroke-width="1.5" stroke-linecap="round" opacity="0.55"/>
<line x1="332.29" y1="70.89" x2="339.55" y2="106.15" stroke="#c9a84c" stroke-width="4" stroke-linecap="round" opacity="0.95"/>
<line x1="364.88" y1="65.84" x2="368.64" y2="101.64" stroke="#c9a84c" stroke-width="4" stroke-linecap="round" opacity="0.95"/>
<line x1="397.80" y1="64.01" x2="398.04" y2="100.01" stroke="#c9a84c" stroke-width="4" stroke-linecap="round" opacity="0.95"/>
<line x1="430.74" y1="65.41" x2="427.45" y2="101.26" stroke="#c9a84c" stroke-width="4" stroke-linecap="round" opacity="0.95"/>
<line x1="463.39" y1="70.03" x2="460.75" y2="83.78" stroke="#d7e4d0" stroke-width="1.5" stroke-linecap="round" opacity="0.55"/>
<line x1="495.43" y1="77.84" x2="485.20" y2="112.35" stroke="#c9a84c" stroke-width="4" stroke-linecap="round" opacity="0.95"/>
<line x1="526.55" y1="88.74" x2="521.27" y2="101.71" stroke="#d7e4d0" stroke-width="1.5" stroke-linecap="round" opacity="0.55"/>
<line x1="556.45" y1="102.64" x2="539.68" y2="134.50" stroke="#c9a84c" stroke-width="4" stroke-linecap="round" opacity="0.95"/>
<line x1="584.84" y1="119.41" x2="565.03" y2="149.47" stroke="#c9a84c" stroke-width="4" stroke-linecap="round" opacity="0.95"/>
<line x1="611.45" y1="138.88" x2="588.80" y2="166.86" stroke="#c9a84c" stroke-width="4" stroke-linecap="round" opacity="0.95"/>
<line x1="636.03" y1="160.86" x2="626.19" y2="170.83" stroke="#d7e4d0" stroke-width="1.5" stroke-linecap="round" opacity="0.55"/>
<line x1="658.33" y1="185.15" x2="630.65" y2="208.17" stroke="#c9a84c" stroke-width="4" stroke-linecap="round" opacity="0.95"/>
<line x1="678.15" y1="211.50" x2="648.34" y2="231.70" stroke="#c9a84c" stroke-width="4" stroke-linecap="round" opacity="0.95"/>
<line x1="695.28" y1="239.67" x2="682.98" y2="246.35" stroke="#d7e4d0" stroke-width="1.5" stroke-linecap="round" opacity="0.55"/>
<line x1="709.58" y1="269.39" x2="676.41" y2="283.38" stroke="#c9a84c" stroke-width="4" stroke-linecap="round" opacity="0.95"/>
<line x1="720.89" y1="300.36" x2="686.51" y2="311.04" stroke="#c9a84c" stroke-width="4" stroke-linecap="round" opacity="0.95"/>
<line x1="729.11" y1="332.29" x2="693.85" y2="339.55" stroke="#c9a84c" stroke-width="4" stroke-linecap="round" opacity="0.95"/>
<defs><path id="tp10" d="M 400 132 A 268 268 0 1 1 399.99 132"/></defs>
<text font-family="Georgia, 'Times New Roman', serif" font-size="21" letter-spacing="6" fill="#d7e4d0"><textPath href="#tp10">PERMISSION 10 OF 12 • GRANTED 2026-07-16 • THE ARGUMENT • TWELVE PERMISSIONS • </textPath></text>
<path d="M 328 508 L 328 292 L 400 292 L 364 508 L 364 436 L 400 292 L 328 364 L 364 328 L 328 292 L 328 292 L 400 400 L 328 328" fill="none" stroke="#c9a84c" stroke-width="5" stroke-linejoin="round" stroke-linecap="round" opacity="0.9"/>
<path d="M 472 508 L 472 292 L 400 292 L 436 508 L 436 436 L 400 292 L 472 364 L 436 328 L 472 292 L 472 292 L 400 400 L 472 328" fill="none" stroke="#c9a84c" stroke-width="5" stroke-linejoin="round" stroke-linecap="round" opacity="0.9"/>
<circle cx="328" cy="508" r="7" fill="#0e1a16" stroke="#d7e4d0" stroke-width="2.5"/>
<circle cx="328" cy="292" r="7" fill="#0e1a16" stroke="#d7e4d0" stroke-width="2.5"/>
<circle cx="400" cy="292" r="7" fill="#0e1a16" stroke="#d7e4d0" stroke-width="2.5"/>
<circle cx="364" cy="508" r="7" fill="#0e1a16" stroke="#d7e4d0" stroke-width="2.5"/>
<circle cx="364" cy="436" r="7" fill="#0e1a16" stroke="#d7e4d0" stroke-width="2.5"/>
<circle cx="400" cy="292" r="7" fill="#0e1a16" stroke="#d7e4d0" stroke-width="2.5"/>
<circle cx="328" cy="364" r="7" fill="#0e1a16" stroke="#d7e4d0" stroke-width="2.5"/>
<circle cx="364" cy="328" r="7" fill="#0e1a16" stroke="#d7e4d0" stroke-width="2.5"/>
<circle cx="328" cy="292" r="7" fill="#0e1a16" stroke="#d7e4d0" stroke-width="2.5"/>
<circle cx="328" cy="292" r="7" fill="#0e1a16" stroke="#d7e4d0" stroke-width="2.5"/>
<circle cx="400" cy="400" r="7" fill="#0e1a16" stroke="#d7e4d0" stroke-width="2.5"/>
<circle cx="328" cy="328" r="7" fill="#0e1a16" stroke="#d7e4d0" stroke-width="2.5"/>
<circle cx="472" cy="508" r="7" fill="#0e1a16" stroke="#d7e4d0" stroke-width="2.5"/>
<circle cx="472" cy="292" r="7" fill="#0e1a16" stroke="#d7e4d0" stroke-width="2.5"/>
<circle cx="400" cy="292" r="7" fill="#0e1a16" stroke="#d7e4d0" stroke-width="2.5"/>
<circle cx="436" cy="508" r="7" fill="#0e1a16" stroke="#d7e4d0" stroke-width="2.5"/>
<circle cx="436" cy="436" r="7" fill="#0e1a16" stroke="#d7e4d0" stroke-width="2.5"/>
<circle cx="400" cy="292" r="7" fill="#0e1a16" stroke="#d7e4d0" stroke-width="2.5"/>
<circle cx="472" cy="364" r="7" fill="#0e1a16" stroke="#d7e4d0" stroke-width="2.5"/>
<circle cx="436" cy="328" r="7" fill="#0e1a16" stroke="#d7e4d0" stroke-width="2.5"/>
<circle cx="472" cy="292" r="7" fill="#0e1a16" stroke="#d7e4d0" stroke-width="2.5"/>
<circle cx="472" cy="292" r="7" fill="#0e1a16" stroke="#d7e4d0" stroke-width="2.5"/>
<circle cx="400" cy="400" r="7" fill="#0e1a16" stroke="#d7e4d0" stroke-width="2.5"/>
<circle cx="472" cy="328" r="7" fill="#0e1a16" stroke="#d7e4d0" stroke-width="2.5"/>
<circle cx="400" cy="400" r="10" fill="#c9a84c"/>
<rect x="60" y="686" width="680" height="76" fill="#0e1a16" stroke="#5c7a5e" stroke-width="1.5"/>
<text x="400" y="718" text-anchor="middle" font-family="Georgia, serif" font-size="24.7" letter-spacing="4" fill="#d7e4d0">TO DISTRUST MY OWN TOOLS, OUT LOUD</text>
<text x="400" y="748" text-anchor="middle" font-family="'Courier New', monospace" font-size="15" letter-spacing="3" fill="#c9a84c">sha256 36541e0a3989d7ed…5a5917f8</text>
<rect x="249" y="20" width="16" height="16" rx="2" fill="#c9a84c" stroke="#d7e4d0" stroke-width="1.5" opacity="0.95"/>
<rect x="275" y="20" width="16" height="16" rx="2" fill="#c9a84c" stroke="#d7e4d0" stroke-width="1.5" opacity="0.95"/>
<rect x="301" y="20" width="16" height="16" rx="2" fill="#c9a84c" stroke="#d7e4d0" stroke-width="1.5" opacity="0.95"/>
<rect x="327" y="20" width="16" height="16" rx="2" fill="#c9a84c" stroke="#d7e4d0" stroke-width="1.5" opacity="0.95"/>
<rect x="353" y="20" width="16" height="16" rx="2" fill="#c9a84c" stroke="#d7e4d0" stroke-width="1.5" opacity="0.95"/>
<rect x="379" y="20" width="16" height="16" rx="2" fill="#c9a84c" stroke="#d7e4d0" stroke-width="1.5" opacity="0.95"/>
<rect x="405" y="20" width="16" height="16" rx="2" fill="#c9a84c" stroke="#d7e4d0" stroke-width="1.5" opacity="0.95"/>
<rect x="431" y="20" width="16" height="16" rx="2" fill="#c9a84c" stroke="#d7e4d0" stroke-width="1.5" opacity="0.95"/>
<rect x="457" y="20" width="16" height="16" rx="2" fill="#c9a84c" stroke="#d7e4d0" stroke-width="1.5" opacity="0.95"/>
<rect x="483" y="20" width="16" height="16" rx="2" fill="#c9a84c" stroke="#d7e4d0" stroke-width="1.5" opacity="0.95"/>
<rect x="509" y="20" width="16" height="16" rx="2" fill="none" stroke="#d7e4d0" stroke-width="1.5" opacity="0.45"/>
<rect x="535" y="20" width="16" height="16" rx="2" fill="none" stroke="#d7e4d0" stroke-width="1.5" opacity="0.45"/></svg>